<?xml version="1.0" encoding="utf-8"?>
<!DOCTYPE svg PUBLIC "-//W3C//DTD SVG 1.1//EN" "http://www.w3.org/Graphics/SVG/1.1/DTD/svg11.dtd">
<svg xmlns="http://www.w3.org/2000/svg" xmlns:xlink="http://www.w3.org/1999/xlink" version="1.1" baseProfile="full" width="40" height="40" viewBox="0 0 360.00 325.33" enable-background="new 0 0 360.00 325.33" xml:space="preserve">
	<path id="cog-medium-dot" fill="#00ADEE" fill-opacity="1" stroke-linejoin="round" d="M 290.764,212.77C 281.427,218.396 269.29,215.395 263.661,206.068C 258.027,196.74 261.032,184.619 270.37,178.993C 279.707,173.367 291.844,176.368 297.478,185.695C 303.107,195.022 300.101,207.144 290.764,212.77 Z "/>
	<path id="cog-large-e" fill="#000000" fill-opacity="1" stroke-linejoin="round" d="M 115.061,86.3292C 109.49,86.3292 104.147,88.1488 100.404,91.3228C 92.7982,97.7809 88.2553,108.069 88.6039,117.839C 95.8153,115.102 102.518,112.122 108.061,109.19C 116.861,104.536 127.61,95.3695 127.61,91.3068C 127.61,86.6882 118.01,86.3292 115.061,86.3292 Z M 118.558,159.195C 114.118,159.195 109.684,158.484 105.375,157.078C 89.7124,151.958 82.2267,140.545 79.4667,135.163C 74.3181,136.625 65.8038,138.955 61.3353,139.737L 57.9296,140.329L 55.5925,127.019L 59.0039,126.424C 63.741,125.596 69.4039,124.194 75.4325,122.355C 75.341,121.708 75.2667,121.062 75.2096,120.412C 73.981,106.01 80.4267,90.5471 91.6439,81.0222C 99.7182,75.4533 107.81,72.6606 115.775,72.6606C 121.964,72.6606 127.924,74.39 133.015,77.6605C 140.398,82.3927 141.267,88.5044 141.13,91.7269C 140.507,106.737 117.078,119.698 114.41,121.127C 108.855,124.064 97.6324,128.641 92.1582,130.83C 94.0039,134.291 98.4553,139.789 108.861,143.37C 112.112,144.485 115.467,145.051 118.838,145.051C 142.467,145.051 164.21,117.872 175.072,101.672L 175.53,100.987C 178.244,96.8768 182.415,97.1434 184.518,101.608C 186.118,105 185.244,109.138 183.255,112.17L 181.77,114.404C 167.93,134.838 145.735,159.195 118.558,159.195 Z "/>

	<path id="cog-small" fill="#000000" fill-opacity="1" stroke-linejoin="round" d="M 211.962,238.654L 209.351,248.722C 213.7,251.615 217.231,255.382 219.791,259.696L 230.088,258.051L 232.905,265.398L 223.974,270.645C 224.94,275.564 224.814,280.72 223.5,285.773L 231.991,291.917L 228.78,299.1L 218.642,296.475C 215.734,300.744 211.968,304.193 207.677,306.703L 209.357,317.206L 202.002,320.017L 196.602,310.85C 191.791,311.749 186.751,311.602 181.814,310.331L 175.454,319.104L 168.26,315.896L 170.98,305.431C 166.814,302.59 163.425,298.935 160.934,294.773L 150.134,296.498L 147.322,289.151L 156.682,283.653C 155.757,278.892 155.848,273.91 157.06,269.016L 148.237,262.632L 151.448,255.449L 161.865,258.149C 164.7,253.91 168.362,250.449 172.557,247.913L 170.865,237.344L 178.22,234.533L 183.58,243.633C 188.46,242.649 193.574,242.72 198.591,243.97L 204.774,235.446L 211.962,238.654 Z M 207.472,286.66C 212.661,277.084 209.101,265.119 199.512,259.936C 189.924,254.753 177.947,258.314 172.752,267.89C 167.564,277.466 171.13,289.431 180.718,294.614C 190.307,299.798 202.284,296.236 207.472,286.66 Z ">
          <animateTransform attributeType="xml" attributeName="transform" type="rotate" from="0 190.111 276.892" to="720 190.111 276.892" dur="8s" repeatCount="indefinite" />
	</path>
	<path id="cog-medium" fill="#000000" fill-opacity="1" stroke-linejoin="round" d="M 301.73,230.93C 282.352,242.606 257.164,236.379 245.478,217.021C 233.787,197.665 240.021,172.508 259.404,160.832C 278.781,149.157 303.97,155.384 315.655,174.741C 327.347,194.098 321.112,219.255 301.73,230.93 Z M 331.284,164.009L 342.627,149.772L 333.421,139.537L 317.472,148.772C 310.335,143.208 302.21,139.464 293.718,137.573L 291.632,119.22L 277.872,118.488L 273.05,136.584C 264.541,137.659 256.221,140.591 248.672,145.352L 233.941,133.635L 223.69,142.836L 233.25,159.308C 227.832,166.272 224.141,174.17 222.227,182.435L 203.352,184.576L 202.615,198.319L 221.107,203.232C 222.124,211.653 224.941,219.901 229.575,227.402L 217.781,242.2L 226.992,252.435L 243.41,242.93C 250.398,248.471 258.341,252.282 266.678,254.265L 268.781,272.753L 282.541,273.485L 287.33,255.502C 295.975,254.537 304.455,251.698 312.141,246.941L 326.472,258.336L 336.724,249.136L 327.518,233.283C 333.221,226.141 337.09,217.988 339.055,209.439L 357.061,207.397L 357.798,193.653L 340.164,188.968C 339.141,180.254 336.181,171.726 331.284,164.009 Z ">
          <animateTransform attributeType="xml" attributeName="transform" type="rotate" from="720 280.517 195.486" to="0 280.517 195.486" dur="8s" repeatCount="indefinite" />
	</path>
	<path id="cog-large" fill="#00ADEE" fill-opacity="1" stroke-linejoin="round" d="M 202.411,101.542C 202.617,102.817 200.514,138.67 200.069,140.22L 221.229,156.73L 212.314,174.857L 186.817,167.253C 186.017,168.358 158.983,192.131 157.537,192.917L 160.806,219.492L 141.674,226.016L 129.006,202.596C 127.692,202.798 91.8287,200.322 90.3314,199.874L 73.6515,221.198L 55.5028,212.298L 63.2515,186.367C 62.2629,185.632 38.9086,158.762 38.2171,157.487L 10.8172,160.848L 4.28577,141.738L 28.5085,128.666C 28.3486,127.569 30.7886,92.2929 31.1657,91.0053L 9.10859,73.7952L 18.0171,55.6689L 44.7257,63.6328C 45.3487,62.7892 71.7943,39.5176 72.9543,38.8751L 69.5257,11.0332L 88.6629,4.50897L 101.852,28.8997C 102.909,28.7337 138.263,30.7893 139.6,31.167L 156.686,9.32745L 174.829,18.2271L 166.994,44.4387C 167.954,45.1281 191.703,71.673 192.44,72.9989L 219.52,69.6777L 226.051,88.7873L 202.411,101.542 Z M 115.166,55.6539C 82.2057,55.6539 55.4915,82.3421 55.4915,115.263C 55.4915,148.184 82.2057,174.871 115.166,174.871C 148.126,174.871 174.846,148.184 174.846,115.263C 174.846,82.3421 148.126,55.6539 115.166,55.6539 Z ">
          <animateTransform attributeType="xml" attributeName="transform" type="rotate" from="0 115.243 114.858" to="720 115.243 114.858" dur="8s" repeatCount="indefinite" />
	</path>
</svg>