<?xml version="1.0" encoding="utf-8"?>
<!DOCTYPE svg PUBLIC "-//W3C//DTD SVG 1.1//EN" "http://www.w3.org/Graphics/SVG/1.1/DTD/svg11.dtd">
<svg xmlns="http://www.w3.org/2000/svg" xmlns:xlink="http://www.w3.org/1999/xlink" version="1.1" baseProfile="full" width="32" height="32" viewBox="0 0 32.00 32.00" enable-background="new 0 0 32.00 32.00" xml:space="preserve">
	<path fill="#000000" fill-opacity="1" stroke-width="0.2" stroke-linejoin="round" d="M 5.46713,1.16667C 6.79603,1.16667 8.01154,1.65211 8.94602,2.45534C 5.4959,3.66374 2.63649,6.12905 0.916846,9.30219C 0.416161,8.48902 0.12735,7.53146 0.12735,6.50644C 0.12735,3.55736 2.51804,1.16667 5.46713,1.16667 Z "/>
	<path fill="#000000" fill-opacity="1" stroke-linejoin="round" d="M 6.93349,13.8113L 15.8977,23.7161C 17.6684,20.5067 19.4391,17.2973 22.1228,13.9865C 24.8065,10.6756 28.4033,7.26335 32,3.85106C 27.6655,6.50712 23.3309,9.16317 20.5365,11.5887C 17.7422,14.0142 16.4879,16.2091 15.2337,18.404L 8.75953,11.9299L 6.93349,13.8113 Z "/>
	<path fill="#000000" fill-opacity="1" stroke-width="0.2" stroke-linejoin="round" d="M 23.8207,1.16667C 25.9802,1.16667 27.8402,2.44847 28.6815,4.29272L 26.0026,6.0786C 24.4387,4.46647 22.5065,3.2135 20.3418,2.45533C 21.2763,1.65211 22.4918,1.16667 23.8207,1.16667 Z "/>
	<path fill="#000000" fill-opacity="1" stroke-linejoin="round" d="M 14.6913,2.33439C 18.8278,2.33439 22.565,4.04396 25.235,6.79509L 20.5076,9.72019C 18.912,8.44822 16.8904,7.688 14.6913,7.688C 9.53424,7.688 5.35361,11.8686 5.35361,17.0257C 5.35361,22.1828 9.53424,26.3634 14.6913,26.3634C 19.8484,26.3634 24.029,22.1828 24.029,17.0257C 24.029,16.1119 23.8977,15.2288 23.6531,14.3942L 27.4716,9.77499C 28.6879,11.9143 29.3826,14.3889 29.3826,17.0257C 29.3826,25.1395 22.8051,31.717 14.6913,31.717C 6.57752,31.717 1.80475e-006,25.1395 1.80475e-006,17.0257C 1.80475e-006,8.91191 6.57752,2.33439 14.6913,2.33439 Z "/>
</svg>
