<?xml version="1.0" encoding="UTF-8" standalone="no"?>
<!-- Created with Inkscape (http://www.inkscape.org/) -->

<svg
   xmlns:dc="http://purl.org/dc/elements/1.1/"
   xmlns:cc="http://creativecommons.org/ns#"
   xmlns:rdf="http://www.w3.org/1999/02/22-rdf-syntax-ns#"
   xmlns:svg="http://www.w3.org/2000/svg"
   xmlns="http://www.w3.org/2000/svg"
   xmlns:sodipodi="http://sodipodi.sourceforge.net/DTD/sodipodi-0.dtd"
   xmlns:inkscape="http://www.inkscape.org/namespaces/inkscape"
   width="32px"
   height="32px"
   viewBox="0 0 32 32"
   id="svg6339"
   version="1.1"
   inkscape:version="0.91 r13725"
   sodipodi:docname="homework.svg">
  <defs
     id="defs6341" />
  <sodipodi:namedview
     id="base"
     pagecolor="#ffffff"
     bordercolor="#666666"
     borderopacity="1.0"
     inkscape:pageopacity="0.0"
     inkscape:pageshadow="2"
     inkscape:zoom="22.395604"
     inkscape:cx="15.035182"
     inkscape:cy="18.984172"
     inkscape:current-layer="g737"
     showgrid="true"
     inkscape:grid-bbox="true"
     inkscape:document-units="px"
     inkscape:window-width="1920"
     inkscape:window-height="1028"
     inkscape:window-x="-8"
     inkscape:window-y="-8"
     inkscape:window-maximized="1" />
  <metadata
     id="metadata6344">
    <rdf:RDF>
      <cc:Work
         rdf:about="">
        <dc:format>image/svg+xml</dc:format>
        <dc:type
           rdf:resource="http://purl.org/dc/dcmitype/StillImage" />
        <dc:title></dc:title>
      </cc:Work>
    </rdf:RDF>
  </metadata>
  <g
     id="layer1"
     inkscape:label="Layer 1"
     inkscape:groupmode="layer">
    <g
       transform="translate(-369.09216,-569.43641)"
       id="g737">
      <path
         style="fill:#999999"
         d="m 393.01811,586.74246 1.33423,-0.22407 3.05227,-11.16043 -18.82866,-4.94289 -6.76638,24.74075 18.82868,4.94289 2.46797,-9.02398 c -0.43211,0.18345 -0.90355,0.26768 -1.36742,0.34546 l -1.96896,7.19941 -16.45335,-4.31932 6.12763,-22.40521 16.45334,4.31932 z"
         id="polygon745"
         inkscape:connector-curvature="0"
         sodipodi:nodetypes="ccccccccccccc" />
      <rect
         style="fill:#999999"
         x="521.30597"
         y="458.64758"
         width="8.1963453"
         height="1.2120326"
         id="rect747"
         transform="matrix(0.96722637,0.25391563,-0.26380332,0.96457649,0,0)" />
      <rect
         style="fill:#999999"
         x="518.80078"
         y="461.77924"
         width="12.806848"
         height="0.68182576"
         id="rect749"
         transform="matrix(0.96722637,0.25391563,-0.26380332,0.96457649,0,0)" />
      <rect
         style="fill:#999999"
         x="518.84235"
         y="462.9184"
         width="12.806848"
         height="0.68458247"
         id="rect751"
         transform="matrix(0.96722637,0.25391563,-0.26380332,0.96457649,0,0)" />
      <rect
         style="fill:#999999"
         x="518.80078"
         y="464.03238"
         width="12.806848"
         height="0.68274462"
         id="rect753"
         transform="matrix(0.96722637,0.25391563,-0.26380332,0.96457649,0,0)" />
      <rect
         style="fill:#999999"
         x="518.88403"
         y="465.87616"
         width="12.806848"
         height="0.68274462"
         id="rect755"
         transform="matrix(0.96722637,0.25391563,-0.26380332,0.96457649,0,0)" />
      <rect
         style="fill:#999999"
         x="288.92017"
         y="645.59576"
         transform="matrix(0.98543607,-0.1700463,0.17448542,0.98465976,0,0)"
         width="1.5375909"
         height="3.2319732"
         id="rect757" />
      <rect
         style="fill:#999999"
         x="-649.0979"
         y="280.49799"
         transform="matrix(-0.17540623,-0.98449614,0.98528202,-0.17093667,0,0)"
         width="3.232213"
         height="7.4709239"
         id="rect759" />
      <polygon
         style="fill:#999999"
         points="389.724,591.201 387.234,588.71 386.963,588.98 386.26,592.173 389.452,591.471 "
         id="polygon761"
         transform="matrix(0.76450555,0.5256129,-0.53622413,0.75192852,408.70173,-58.172568)" />
      <rect
         id="rect3384"
         height="0.68274462"
         width="9.5596113"
         y="467.02502"
         x="518.88403"
         style="fill:#999999"
         transform="matrix(0.96722637,0.25391563,-0.26380332,0.96457649,0,0)" />
      <rect
         style="fill:#999999"
         x="518.88403"
         y="469.07654"
         width="10.85018"
         height="0.68274462"
         id="rect3386"
         transform="matrix(0.96722637,0.25391563,-0.26380332,0.96457649,0,0)" />
      <rect
         style="fill:#999999"
         x="518.84235"
         y="470.22543"
         width="9.5596113"
         height="0.68274462"
         id="rect3388"
         transform="matrix(0.96722637,0.25391563,-0.26380332,0.96457649,0,0)" />
      <rect
         id="rect3390"
         height="0.68274462"
         width="9.5596113"
         y="471.41534"
         x="518.84235"
         style="fill:#999999"
         transform="matrix(0.96722637,0.25391563,-0.26380332,0.96457649,0,0)" />
      <rect
         style="fill:#999999"
         x="518.75909"
         y="472.72824"
         width="9.5596113"
         height="0.68274462"
         id="rect3392"
         transform="matrix(0.96722637,0.25391563,-0.26380332,0.96457649,0,0)" />
      <path
         sodipodi:nodetypes="ccccccccc"
         inkscape:connector-curvature="0"
         id="path3394"
         d="m 379.14876,572.39305 -5.51428,-0.57124 -2.36739,25.53985 13.37298,1.10706 -1.11206,-1.30584 -10.92546,-0.90544 2.14391,-23.12887 3.06677,0.36961 z"
         style="fill:#999999" />
    </g>
  </g>
</svg>
